<?xml version="1.0" encoding="UTF-8"?>
<svg id="cartIcon" xmlns="http://www.w3.org/2000/svg" viewBox="0 0 154 139.06">
  <defs>
    <style>
      .cls-1 {
        fill: #f2f1f1;
      }
    </style>
  </defs>
  <path class="cls-1" d="M134,97H46.5c-2.04,0-2.04-7,0-7h85l22.5-71.99-113.51-2c-1.31-.04-1.86-.47-2.31-1.69-.73-2-2.35-13.76-3.19-14.31H0v11h25.5l16.57,69.35c-16.07,9.27-6.94,30.94,10.93,27.66-1.26,1.79-3.57,2.1-5.54,3.95-11.53,10.83-1.97,29.73,13.6,26.6,12.05-2.42,15.84-16.44,8.49-25.6l-7.54-4.96h51c-.41,1.67-2.92,1.66-4.51,2.99-18.77,15.74,7.93,39.78,21.5,21.5,4.6-6.2,4.28-14.31-1-19.98l-6.98-4.5h12s0-11.01,0-11.01ZM41,27.01l98,2-15.14,49.85-70.76.04-12.1-51.89ZM60.59,127.09c-4.48,3.63-9.17-3.65-6.35-6.84,4.09-4.62,11.39,2.75,6.35,6.84ZM114.25,126.75c-3.54-3.54,1.32-10.84,6.34-6.84,5.02,4-2.19,10.99-6.34,6.84Z"/>
</svg>