<?xml version="1.0" encoding="UTF-8"?>
<svg id="Layer_1" data-name="Layer 1" xmlns="http://www.w3.org/2000/svg" xmlns:xlink="http://www.w3.org/1999/xlink" viewBox="0 0 2024.2 2399.98">
  <defs>
    <style>
      .cls-1 {
        fill: url(#radial-gradient);
      }

      .cls-2 {
        fill: #f1f1f1;
      }

      .cls-3 {
        fill: #f14557;
      }
    </style>
    <radialGradient id="radial-gradient" cx="1013.33" cy="1206.31" fx="1013.33" fy="1206.31" r="1085.55" gradientTransform="translate(-7 -48.54) scale(1 1.03)" gradientUnits="userSpaceOnUse">
      <stop offset="0" stop-color="#f15969"/>
      <stop offset=".75" stop-color="#f14557"/>
    </radialGradient>
  </defs>
  <g id="BG">
    <rect class="cls-1" width="2018.1" height="2396.5"/>
  </g>
  <path id="Splash" class="cls-2" d="M2007.71,1498.59c-19.4,40.3-59.02,75.2-104.13,88.51-149.81,44.21-302.16-166.84-382.68-114.54-30.23,19.63-16.76,54.58-67.68,96.32-46.56,38.16-75.96,23.83-96.32,54.67-33.84,51.26,27.77,120.57-5.21,156.19-21.8,23.55-70.73,17.03-93.72,10.41-40.38-11.62-49.78-37.66-88.51-39.05-23.13-.83-23.28,8.33-52.06,10.41-49.24,3.56-68.08-21.84-93.72-15.62-39.94,9.69-53.8,85.8-57.27,106.73-39.32,237.03,82.85,453.64,10.41,512.84-14.13,11.55-69.83,45.02-124.95,31.24h0c-35.37-6.4-59.98-26.57-67.68-33.84-101.41-95.8,126.07-414.96,13.02-546.68-2.12-2.47-45.83-52.03-98.92-46.86-138.39,13.49-117.92,385.71-343.63,473.79-21.68,8.46-122.85,47.94-174.42,2.6-31.43-27.63-31.28-75.22-31.24-88.51.63-201.37,358.17-292.9,406.11-536.27,5.16-26.21,15.41-78.25-5.21-135.37-27.11-75.09-76.33-72.44-106.73-143.18-38.12-88.68,19.95-137.74-23.43-203.05-41.91-63.09-132.4-71.98-143.18-72.89-73.15-6.2-90.92,32.99-153.59,20.83-52.78-10.24-111.87-51.94-119.75-106.73-6.15-42.76,19.7-87.87,52.06-114.54,116.76-96.23,302.47,57.01,432.14-31.24,44.5-30.29,78.74-88.98,80.7-145.78,7.09-205.78-413-284.26-413.92-505.03-.2-48.94,20.17-109.92,65.08-143.18,69.59-51.54,172.12-17.27,192.64-10.41,265.99,88.9,245,504.41,458.17,549.28,10.99,2.31,20.23,3.37,29.46,3.08,105.23-3.29,157.73-54.89,223.06-73.36,120.21-33.99,163.61,106.65,291.56,91.11,147.03-17.86,171.66-213.53,328.01-218.67,9.65-.32,89.35-1.87,124.96,49.46,31.48,45.38,20.55,120.64-15.62,169.21-69.95,93.94-203.61,46.88-275.94,148.38-9.61,13.49-36.62,51.39-28.6,92.79,3.3,16.99,9.44,18.8,27.46,57.42,14.49,31.05,24.76,53.07,29.78,81.48,3.37,19.07,2.24,42.22,0,88.51-2.12,43.8-5.09,56.34,2.6,75.49,9.94,24.76,28.91,38.71,36.45,44.26,78.96,58.07,199.81-24.13,291.56,36.45,41.93,27.68,58.55,72.48,70.29,104.13,9.8,26.43,36.09,99.66,2.6,169.21Z"/>
  <g id="D">
    <path class="cls-3" d="M939.59,1108.59c-6.64-23.13-62.73-150.85-183.9-218.5-56.8-31.72-121.31-24.71-155.05,11.74-17.03,18.39-29.52,47.84-26.62,80.11,3.14,34.99,22.94,57.53,29.46,64.37,8.81,11.4,19.88,29.01,25.98,52.57,14.75,56.92-10.86,104.67-17.97,117-35.95,62.3-25.17,105.57-8.76,136.37,7.87,14.78,26.49,37.85,76.38,50.82,63.74,16.58,156.89,9.36,219.06-56.5,38.79-41.1,50.66-88.66,54.78-114.4,1.71-28.28,1.28-72.62-13.36-123.58ZM844.15,1174.71c-1.67,7.3-7.54,16.12-15.36,17.36-14.87,2.36-28.05-24.05-32.71-33.38-6.11-12.24-7.25-21.3-6.68-28.71.37-4.76,1.12-14.61,6.86-17.1,5.95-2.58,13.94,4.18,20.51,9.75,2.31,1.96,10.96,9.53,19.07,24.71,6.73,12.6,10.2,19.08,8.3,27.36Z"/>
  </g>
  <g id="Dot">
    <path class="cls-3" d="M1022.57,1389.5c-2.07,4.18-6.13,12.36-15.34,14.44-7.7,1.73-16.36-1.4-20.75-7.67-7.18-10.25-.56-25.46,8.57-32.03,1.29-.93,8.61-6.2,17.67-4.03,1.22.29,8.13,1.94,11.7,8.19,4.62,8.07,0,17.38-1.85,21.11Z"/>
  </g>
  <g id="N">
    <path class="cls-3" d="M1220.64,896.01c-22.23-18.54-51.47-23.4-74.64-12.27-19.03,9.14-27.63,26.01-30.42,32.22-1.76,7.8-2.89,18.93,2.3,29.23,6.35,12.59,17.68,15.11,39.25,28.42,20.22,12.48,30.33,18.72,38.58,29.78,17.79,23.87,18.27,53.79,18.24,60.38-.01,2.13.17,5.59-.51,9.74-2.18,13.37-11.1,26.77-33.45,61-43.29,66.29-56.66,88.57-62.56,120.41-2.73,14.72-2.78,25.63-2.68,30.64.27,13.92.74,46.97,23.72,76.74,23.08,29.9,54.07,39.03,64.18,41.57,13.06,6.92,231.87,19.73,94.35-199.42,0,0-74.96-146.6,49.22-182.88,28.01-6.98,49.79-16.41,64.88-24.07,10.27-5.21,22.25-11.38,36.28-22.38,15.07-11.83,25.74-23.95,32.79-33.08,1.77-4.52,15.97-38.86-1.55-59.03-13.03-15-44.17-20.63-112.86,4.61,0,0-101.85,46.04-145.1,8.37Z"/>
  </g>
  <g id="TopDrop">
    <path class="cls-3" d="M875.53,896.84c1.87.04,3.43-10.98,6.49-30.72,3.97-25.56,5.95-38.35,6.06-40.56.64-13.19,1.71-35.25-9.26-58.63-5.1-10.88-10.84-23.09-24.64-31.01-20.27-11.62-41.66-4.65-44.73-3.59-5.45,1.87-27.67,10.45-34.42,33.64-.43,1.46-6.61,24,6.89,40.87,9.23,11.53,23.47,15.19,25.59,15.7,6.91,1.68,10.21.71,19.37,3.51,2.62.8,9.7,3.02,16.81,7.58,13.5,8.66,19.82,21.08,22.29,26.09,9.76,19.79,7.22,37.07,9.56,37.12Z"/>
  </g>
  <g id="RightDrop">
    <path class="cls-3" d="M1407.8,1348.47c1.82-.45,5.75,9.96,13.06,28.55,9.46,24.08,14.2,36.12,14.78,38.25,3.51,12.73,9.38,34.02,3.79,59.24-2.6,11.73-5.52,24.9-17.26,35.65-17.24,15.78-39.63,13.65-42.86,13.29-5.73-.64-29.29-4.15-40.95-25.29-.74-1.33-11.7-21.97-2.22-41.39,6.48-13.27,19.57-19.95,21.54-20.92,6.38-3.15,9.81-2.92,18.13-7.66,2.38-1.36,8.8-5.07,14.74-11.07,11.28-11.4,14.72-24.91,16.04-30.33,5.2-21.45-1.07-37.75,1.21-38.31Z"/>
  </g>
  <g id="RightTopDrop">
    <path class="cls-3" d="M1388.5,1266.45c-2.24,7.88,4.7,14.34,9.73,23.58,10.73,19.71,5.18,38.21,8.54,38.49,3.17.27,6.96-16.32,8.37-25.53,2.32-15.09.25-23.22-.81-26.67-3.04-9.83-7.66-13.24-8.95-14.12-1.45-.99-6.78-4.65-11.53-2.58-3.74,1.63-5.08,5.91-5.34,6.83Z"/>
  </g>
</svg>