<?xml version="1.0" encoding="UTF-8"?>
<svg id="White" xmlns="http://www.w3.org/2000/svg" xmlns:xlink="http://www.w3.org/1999/xlink" viewBox="0 0 637.94 291.5">
  <defs>
    <style>
      .cls-1 {
        fill: url(#radial-gradient);
      }

      .cls-2 {
        fill: #f1f1f1;
      }
    </style>
    <radialGradient id="radial-gradient" cx="318.97" cy="145.75" fx="318.97" fy="145.75" r="247.94" gradientUnits="userSpaceOnUse">
      <stop offset="0" stop-color="#f15969"/>
      <stop offset=".75" stop-color="#f14557"/>
    </radialGradient>
  </defs>
  <rect class="cls-1" x=".05" width="637.84" height="291.5"/>
  <g id="Dr.">
    <path class="cls-2" d="M139.23,141.99c-1.46-5.08-13.78-33.13-40.39-47.99-12.48-6.97-26.64-5.43-34.06,2.58-3.74,4.04-6.48,10.51-5.85,17.6.69,7.69,5.04,12.64,6.47,14.14,1.93,2.5,4.37,6.37,5.71,11.55,3.24,12.5-2.38,22.99-3.95,25.7-7.9,13.68-5.53,23.19-1.93,29.95,1.73,3.25,5.82,8.31,16.78,11.16,14,3.64,34.46,2.06,48.12-12.41,8.52-9.03,11.13-19.47,12.03-25.13.37-6.21.28-15.95-2.93-27.15ZM118.26,156.51c-.37,1.6-1.66,3.54-3.37,3.81-3.27.52-6.16-5.28-7.19-7.33-1.34-2.69-1.59-4.68-1.47-6.31.08-1.05.25-3.21,1.51-3.76,1.31-.57,3.06.92,4.51,2.14.51.43,2.41,2.09,4.19,5.43,1.48,2.77,2.24,4.19,1.82,6.01Z"/>
    <path class="cls-2" d="M222.71,160.45c-34.78-14.27-2.68-28.99-2.68-28.99,8.01-2.61,10.82-7.64,11.84-14.98,1.59-11.46-9.49-20.27-11.15-21.41-15.59-10.71-41.73,1.5-42.96,2.26-3.66,2.28-8.63,5.49-10.8,11.89-2.5,7.38.4,14.05,1.29,15.91,9.97,17.55,9.18,27.39,6.39,33.19-1.43,2.97-4.13,5.57-11.38,13.57-4.25,4.69-6.32,9.59-6.48,15.54-.15,5.75,2.24,10.28,3.79,12.68,2.34,2.1,6.75,5.42,13.07,6.71,2.7.55,7.05,1.32,11.94-.56,1.53-.59,4.85-2.05,6.94-5.49,2.74-4.52,1.54-9.62.95-12.16-1.7-7.27-5.23-7.14-6.84-14.27-.32-1.41-1.41-6.91,1.04-12.64.86-2.01,2.43-5.67,5.17-5.99,3.66-.43,6.76,5.4,7.19,6.23,2.09,4,1.8,7.45,1.88,11.3.12,5.85.29,13.78,3.77,20.03,3.94,7.08,11.98,11.83,19.47,12.28,1.18.07,12.42.56,18.4-7.65,0,0,3.52-4.83,3.31-11.08-.36-10.73-7.18-21.23-24.16-26.37ZM201.96,116.13c-1.48.38-2.72.52-3.79.51s-1.98-.18-2.77-.41c-.51-.15-1.29-.39-1.98-.75-.69-.37-1.28-.87-1.42-1.55-.14-.71.25-1.42.87-2.09s1.46-1.32,2.22-1.91c.27-.21.92-.69,1.96-1.25,1.04-.56,2.48-1.2,4.32-1.73,1.53-.43,2.69-.76,3.68-.88.99-.12,1.81-.03,2.67.37.75.35,1.54.96,2.13,1.69s.97,1.6.92,2.48c-.1,1.67-1.74,2.91-3.63,3.81-1.9.89-4.05,1.44-5.18,1.73Z"/>
    <path class="cls-2" d="M259.45,203.69c-.46.92-1.35,2.72-3.37,3.17-1.69.38-3.59-.31-4.56-1.68-1.58-2.25-.12-5.59,1.88-7.04.28-.2,1.89-1.36,3.88-.89.27.06,1.79.43,2.57,1.8,1.01,1.77,0,3.82-.41,4.64Z"/>
  </g>
  <g id="Nut">
    <path class="cls-2" d="M287.83,149.26c-1.56-4.41-2.87-5.49-3.75-8.68-1.14-4.18-.4-7.77,0-9.68,1.73-8.29,8.08-15.5,16.02-18.33,1.39-.5,3.55-1.11,6.24-1.29,1.69-.11,13.65-.69,19.82,8.32,4.29,6.26,3.15,13.33,2.8,15.17-.54,1.54-6.45,19.19,2.14,27.16.69.64,3.66,3.09,7.74,2.88,3.46-.18,7.32-2.27,8.97-6.2,2.09-4.96-.79-9.42-1.02-9.76-2.27-4.44-5.53-12.19-6.31-22.38-.73-9.67,1.08-17.46,2.54-22.12,0,0,9.46-26.55,29.6-10.37,6.09,7.13,7.84,16.25,4.4,23.2-2.01,4.04-5.28,6.36-7.36,7.54-.55.36-11.89,7.98-11.35,21.65.49,12.43,10.38,19.07,11.32,19.68,8.49,6.77,12.98,16.27,10.88,24.31-1.29,4.93-4.81,8.4-6.34,9.91-1.43,1.41-6.63,6.39-15.06,7.53-9.94,1.35-17.24-3.6-19.23-4.96-.88-.6-4.24-2.95-7.33-7.14-2.58-3.48-3.75-6.58-4.96-9.91-3.6-9.95-9.51-26.96-9.51-26.96-.71-2.04-2.12-5.96-5.55-9.71-1.18-1.29-4.96-5.42-7.37-4.43-2.37.97-2.12,6.37-2.1,8.71.03,3.45.65,8.89,3.97,15.34,7.32,14.84,6.25,29.41-1.36,35.61-1.57,1.27-4.48,3.07-9.46,3.43-2.71-.3-6.05-1.15-8.8-3.56-7.21-6.3-7.35-20.59-3.41-30.62,2.56-6.52,6.42-10.18,5.65-16.83-.16-1.34-.66-4.24-1.83-7.53Z"/>
    <path class="cls-2" d="M402.58,127.99c-6.13-5.28-8.28-13.66-5.46-20.65,3.5-8.68,12.81-10.64,13.49-10.78,1-.27,10.84-2.75,18.4,3.56,6.93,5.78,9.01,16.47,4.47,25.74-2.5,3.92-5.46,9.43-7.63,16.44-2.52,8.12-3.06,15.27-3.05,20.32.14.6,2.47,9.79,10.55,12.49,7.6,2.54,24.22-3.71,28.35-12.76.75-3.24,1.36-7.75.78-13.04-1.22-11.08-6.94-18.67-9.67-21.85-6.83-8.25-8.15-19.31-3.44-27.62,4.58-8.11,13.07-10.41,14.87-10.85,7.04-1.74,15.63,1.81,19.4,8.42,3.7,6.48,1.3,13.78.19,17.15-2.52,7.66-6.52,8.99-9.06,14.87-2.12,4.89-3.08,12.6,2.38,24.82,1.52,2.53,3.99,7.41,4.4,13.96,0,0,.4,8.94-4.37,17.86-6.3,11.8-27.21,21.12-45.45,20.2,0,0-47.27,4.46-31.22-38.95,2.56-5.29,4.16-9.88,5.16-13.21,3.69-12.31,3.02-16.64,1.98-19.28-1.32-3.35-3.55-5.58-5.05-6.84Z"/>
    <path class="cls-2" d="M520.68,95.3c-4.88-4.07-11.3-5.14-16.4-2.69-4.18,2.01-6.07,5.71-6.68,7.08-.39,1.71-.63,4.16.51,6.42,1.39,2.77,3.88,3.32,8.62,6.24,4.44,2.74,6.66,4.11,8.47,6.54,3.91,5.24,4.01,11.82,4.01,13.26,0,.47.04,1.23-.11,2.14-.48,2.94-2.44,5.88-7.35,13.4-9.51,14.56-12.45,19.45-13.74,26.45-.6,3.23-.61,5.63-.59,6.73.06,3.06.16,10.32,5.21,16.86,5.07,6.57,11.88,8.57,14.1,9.13,2.87,1.52,50.93,4.33,20.72-43.8,0,0-16.46-32.2,10.81-40.17,6.15-1.53,10.94-3.6,14.25-5.29,2.26-1.14,4.89-2.5,7.97-4.92,3.31-2.6,5.65-5.26,7.2-7.27.39-.99,3.51-8.54-.34-12.97-2.86-3.29-9.7-4.53-24.79,1.01,0,0-22.37,10.11-31.87,1.84Z"/>
  </g>
  <g id="Drops">
    <path class="cls-2" d="M175.23,226.38c.07.4-2.27,1.12-6.45,2.45-5.41,1.73-8.12,2.59-8.6,2.69-2.84.59-7.59,1.57-13.04-.02-2.53-.74-5.38-1.57-7.57-4.3-3.21-4-2.42-8.88-2.3-9.59.22-1.25,1.33-6.36,6.13-8.61.3-.14,4.98-2.25,9.1.11,2.82,1.61,4.09,4.58,4.28,5.02.6,1.44.5,2.19,1.42,4.08.26.54.98,2,2.22,3.39,2.34,2.64,5.25,3.58,6.42,3.95,4.63,1.45,8.29.31,8.38.81Z"/>
    <path class="cls-2" d="M388.16,95.48c.41,0,.75-2.41,1.43-6.75.87-5.62,1.31-8.42,1.33-8.91.14-2.9.38-7.74-2.04-12.88-1.12-2.39-2.38-5.07-5.41-6.81-4.45-2.55-9.15-1.02-9.83-.79-1.2.41-6.08,2.3-7.56,7.39-.09.32-1.45,5.27,1.51,8.98,2.03,2.53,5.15,3.34,5.62,3.45,1.52.37,2.24.16,4.26.77.58.18,2.13.66,3.69,1.66,2.96,1.9,4.35,4.63,4.89,5.73,2.14,4.35,1.59,8.14,2.1,8.15Z"/>
    <path class="cls-2" d="M561.07,194.68c.4-.1,1.26,2.19,2.87,6.27,2.08,5.29,3.12,7.93,3.25,8.4.77,2.8,2.06,7.47.83,13.01-.57,2.58-1.21,5.47-3.79,7.83-3.79,3.47-8.7,3-9.41,2.92-1.26-.14-6.43-.91-8.99-5.55-.16-.29-2.57-4.83-.49-9.09,1.42-2.91,4.3-4.38,4.73-4.6,1.4-.69,2.16-.64,3.98-1.68.52-.3,1.93-1.11,3.24-2.43,2.48-2.5,3.23-5.47,3.52-6.66,1.14-4.71-.23-8.29.27-8.42Z"/>
    <path class="cls-2" d="M231.21,76.1c4.55,1.9,7.17,5.25,7.63,5.85,6.37,8.33,4.93,20.34,3.77,20.51-1.19.18-.2-12.44-8.62-18.33-4.11-2.88-10.1-3.91-10.21-6.94,0-.11-.02-1.04.59-1.68,1.55-1.62,5.59.07,6.84.59Z"/>
    <path class="cls-2" d="M556.83,176.66c-.49,1.73,1.03,3.15,2.14,5.18,2.36,4.33,1.14,8.39,1.88,8.45.7.06,1.53-3.58,1.84-5.61.51-3.32.06-5.1-.18-5.86-.67-2.16-1.68-2.91-1.97-3.1-.32-.22-1.49-1.02-2.53-.57-.82.36-1.12,1.3-1.17,1.5Z"/>
  </g>
</svg>